<?xml version="1.0" standalone="no"?>
<!DOCTYPE svg PUBLIC "-//W3C//DTD SVG 20010904//EN"
 "http://www.w3.org/TR/2001/REC-SVG-20010904/DTD/svg10.dtd">
<svg version="1.0" xmlns="http://www.w3.org/2000/svg"
 width="1112.000000pt" height="1280.000000pt" viewBox="0 0 1112.000000 1280.000000"
 preserveAspectRatio="xMidYMid meet">
<metadata>
Created by potrace 1.15, written by Peter Selinger 2001-2017
</metadata>
<g transform="translate(0.000000,1280.000000) scale(0.100000,-0.100000)"
fill="#bebcbc" stroke="none">
<path d="M9772 12191 c-728 -329 -1327 -602 -1331 -607 -4 -5 -65 -144 -135
-309 -173 -406 -502 -1053 -889 -1750 -564 -1015 -1226 -2093 -2309 -3760
-117 -181 -448 -693 -733 -1137 -286 -443 -522 -805 -524 -803 -19 20 -289
739 -386 1030 -194 582 -345 1205 -345 1425 0 33 -1 60 -3 60 -2 0 -703 -371
-1558 -825 -1363 -723 -1554 -827 -1551 -845 6 -37 113 -352 154 -455 23 -55
196 -428 386 -830 336 -712 600 -1279 669 -1440 127 -293 297 -750 459 -1229
83 -246 100 -288 149 -361 109 -165 270 -284 445 -331 90 -24 305 -24 418 0
297 63 611 222 967 487 196 146 350 282 555 488 400 403 690 792 892 1195 39
78 130 249 203 381 244 441 340 626 662 1270 342 685 438 870 796 1540 725
1356 1048 1911 2749 4715 691 1140 1139 1888 1385 2315 218 379 216 375 206
374 -4 0 -603 -269 -1331 -598z m-4982 -9912 c0 -20 -40 -99 -51 -99 -7 0 -69
76 -69 84 0 10 64 34 93 35 21 1 27 -4 27 -20z"/>
</g>
</svg>
